<svg xmlns="http://www.w3.org/2000/svg" width="1200" height="675" viewBox="0 0 1200 675">
<defs><linearGradient id="bg" x1="0" x2="1" y1="0" y2="1"><stop stop-color="#030713"/><stop offset=".55" stop-color="#08152b"/><stop offset="1" stop-color="#02040d"/></linearGradient><linearGradient id="g" x1="0" x2="1"><stop stop-color="#ffb547"/><stop offset="1" stop-color="#24d89a"/></linearGradient><radialGradient id="r"><stop stop-color="#ffb547" stop-opacity=".34"/><stop offset="1" stop-color="#ffb547" stop-opacity="0"/></radialGradient><filter id="glow"><feGaussianBlur stdDeviation="11" result="b"/><feMerge><feMergeNode in="b"/><feMergeNode in="SourceGraphic"/></feMerge></filter></defs>
<rect width="1200" height="675" fill="url(#bg)"/><circle cx="880" cy="280" r="330" fill="url(#r)"/><path d="M0 134 C 260 44, 700 234, 1200 114" stroke="#ffb547" opacity="0.040" fill="none"/><path d="M0 192 C 260 102, 700 292, 1200 172" stroke="#ffb547" opacity="0.048" fill="none"/><path d="M0 256 C 260 166, 700 356, 1200 236" stroke="#ffb547" opacity="0.056" fill="none"/><path d="M0 302 C 260 212, 700 402, 1200 282" stroke="#ffb547" opacity="0.064" fill="none"/><path d="M0 361 C 260 271, 700 461, 1200 341" stroke="#ffb547" opacity="0.072" fill="none"/><path d="M0 423 C 260 333, 700 523, 1200 403" stroke="#ffb547" opacity="0.080" fill="none"/><path d="M0 481 C 260 391, 700 581, 1200 461" stroke="#ffb547" opacity="0.088" fill="none"/><path d="M0 531 C 260 441, 700 631, 1200 511" stroke="#ffb547" opacity="0.096" fill="none"/><rect x="178" y="554" width="94" height="67" rx="10" fill="url(#g)" opacity="0.15"/><rect x="1036" y="92" width="49" height="55" rx="13" fill="url(#g)" opacity="0.16"/><rect x="136" y="347" width="160" height="124" rx="7" fill="url(#g)" opacity="0.22"/><rect x="1094" y="84" width="164" height="81" rx="9" fill="url(#g)" opacity="0.28"/><rect x="933" y="121" width="125" height="60" rx="6" fill="url(#g)" opacity="0.09"/><rect x="346" y="304" width="45" height="140" rx="4" fill="url(#g)" opacity="0.09"/><rect x="1157" y="260" width="98" height="71" rx="18" fill="url(#g)" opacity="0.19"/><rect x="363" y="353" width="116" height="175" rx="5" fill="url(#g)" opacity="0.22"/><rect x="87" y="380" width="114" height="88" rx="5" fill="url(#g)" opacity="0.15"/><rect x="519" y="419" width="142" height="104" rx="5" fill="url(#g)" opacity="0.18"/><rect x="996" y="84" width="86" height="144" rx="5" fill="url(#g)" opacity="0.12"/><rect x="147" y="147" width="106" height="42" rx="7" fill="url(#g)" opacity="0.21"/><rect x="807" y="108" width="89" height="180" rx="3" fill="url(#g)" opacity="0.09"/>
<path d="M0 560 L170 500 290 530 410 440 550 505 710 390 860 470 1020 350 1200 430V675H0Z" fill="#050a16" opacity=".92"/>
<path d="M65 584H1135" stroke="#ffb547" opacity=".34"/><path d="M110 607H690" stroke="#24d89a" opacity=".2"/>
<g transform="translate(70 74)"><rect width="78" height="5" rx="2.5" fill="url(#g)" filter="url(#glow)"/><text x="0" y="66" font-family="Segoe UI,Arial" font-size="57" font-weight="800" fill="#f5f8ff" letter-spacing="2">ANCIENT RUINS</text><text x="2" y="100" font-family="Segoe UI,Arial" font-size="17" font-weight="700" fill="#ffb547" letter-spacing="6">MODULAR KIT</text></g>
<g transform="translate(994 552)"><path d="M40 0 80 23v46L40 92 0 69V23Z" fill="#081224" stroke="#ffb547" stroke-width="2"/><path d="M20 58V31l20 14 20-14v27" fill="none" stroke="#ffb547" stroke-width="4"/></g>
<text x="70" y="632" font-family="Segoe UI,Arial" font-size="13" fill="#718096" letter-spacing="3">ASSETGURU • GAMEGURU MAX READY</text></svg>