<svg xmlns="http://www.w3.org/2000/svg" viewBox="0 0 1200 675" role="img" aria-label="Cinematic Combat Audio">
    <defs>
      <linearGradient id="bg" x1="0" y1="0" x2="1" y2="1"><stop stop-color="#02040d"/><stop offset=".55" stop-color="#071329"/><stop offset="1" stop-color="#120824"/></linearGradient>
      <linearGradient id="g2" x1="0" y1="0" x2="1" y2="1"><stop stop-color="#ff3fd8"/><stop offset="1" stop-color="#4d7cff"/></linearGradient>
      <radialGradient id="glow"><stop stop-color="#ff3fd8" stop-opacity=".45"/><stop offset="1" stop-color="#ff3fd8" stop-opacity="0"/></radialGradient>
      <filter id="soft"><feGaussianBlur stdDeviation="24"/></filter>
    </defs>
    <rect width="1200" height="675" fill="url(#bg)"/>
    <circle cx="260" cy="120" r="250" fill="url(#glow)" filter="url(#soft)"/>
    <circle cx="980" cy="560" r="290" fill="url(#glow)" filter="url(#soft)" opacity=".65"/>
    <g opacity=".18" stroke="#27547a"><path d="M0 90h1200M0 180h1200M0 270h1200M0 360h1200M0 450h1200M0 540h1200M120 0v675M240 0v675M360 0v675M480 0v675M600 0v675M720 0v675M840 0v675M960 0v675M1080 0v675"/></g>
    <g fill="none" stroke-linecap="round"><path d="M80 340h1040" stroke="#183352" stroke-width="8"/><path d="M80 340c45 0 45-130 90-130s45 260 90 260 45-360 90-360 45 460 90 460 45-300 90-300 45 180 90 180 45-410 90-410 45 560 90 560 45-350 90-350 45 190 90 190 45-230 90-230 45 130 90 130" stroke="url(#g2)" stroke-width="18"/></g>
    <rect x="28" y="28" width="1144" height="619" rx="34" fill="none" stroke="url(#g2)" stroke-width="4" opacity=".5"/>
    </svg>