<svg xmlns="http://www.w3.org/2000/svg" width="1200" height="675" viewBox="0 0 1200 675">
<defs><linearGradient id="bg" x1="0" x2="1" y1="0" y2="1"><stop stop-color="#030713"/><stop offset=".55" stop-color="#08152b"/><stop offset="1" stop-color="#02040d"/></linearGradient><linearGradient id="g" x1="0" x2="1"><stop stop-color="#24d89a"/><stop offset="1" stop-color="#00e5ff"/></linearGradient><radialGradient id="r"><stop stop-color="#24d89a" stop-opacity=".34"/><stop offset="1" stop-color="#24d89a" stop-opacity="0"/></radialGradient><filter id="glow"><feGaussianBlur stdDeviation="11" result="b"/><feMerge><feMergeNode in="b"/><feMergeNode in="SourceGraphic"/></feMerge></filter></defs>
<rect width="1200" height="675" fill="url(#bg)"/><circle cx="880" cy="280" r="330" fill="url(#r)"/><path d="M0 118 C 260 28, 700 218, 1200 98" stroke="#24d89a" opacity="0.040" fill="none"/><path d="M0 191 C 260 101, 700 291, 1200 171" stroke="#24d89a" opacity="0.048" fill="none"/><path d="M0 236 C 260 146, 700 336, 1200 216" stroke="#24d89a" opacity="0.056" fill="none"/><path d="M0 309 C 260 219, 700 409, 1200 289" stroke="#24d89a" opacity="0.064" fill="none"/><path d="M0 369 C 260 279, 700 469, 1200 349" stroke="#24d89a" opacity="0.072" fill="none"/><path d="M0 431 C 260 341, 700 531, 1200 411" stroke="#24d89a" opacity="0.080" fill="none"/><path d="M0 482 C 260 392, 700 582, 1200 462" stroke="#24d89a" opacity="0.088" fill="none"/><path d="M0 531 C 260 441, 700 631, 1200 511" stroke="#24d89a" opacity="0.096" fill="none"/><rect x="357" y="294" width="147" height="192" rx="9" fill="url(#g)" opacity="0.15"/><rect x="992" y="493" width="171" height="76" rx="10" fill="url(#g)" opacity="0.2"/><rect x="26" y="87" width="134" height="179" rx="7" fill="url(#g)" opacity="0.18"/><rect x="495" y="551" width="99" height="207" rx="16" fill="url(#g)" opacity="0.09"/><rect x="924" y="97" width="124" height="168" rx="6" fill="url(#g)" opacity="0.2"/><rect x="774" y="91" width="79" height="52" rx="3" fill="url(#g)" opacity="0.11"/><rect x="948" y="162" width="181" height="117" rx="7" fill="url(#g)" opacity="0.18"/><rect x="402" y="420" width="49" height="150" rx="10" fill="url(#g)" opacity="0.29"/><rect x="172" y="479" width="90" height="83" rx="5" fill="url(#g)" opacity="0.24"/><rect x="270" y="366" width="161" height="173" rx="9" fill="url(#g)" opacity="0.28"/><rect x="718" y="552" width="77" height="167" rx="14" fill="url(#g)" opacity="0.18"/><rect x="944" y="336" width="138" height="111" rx="15" fill="url(#g)" opacity="0.32"/><rect x="564" y="93" width="63" height="70" rx="18" fill="url(#g)" opacity="0.25"/>
<path d="M0 560 L170 500 290 530 410 440 550 505 710 390 860 470 1020 350 1200 430V675H0Z" fill="#050a16" opacity=".92"/>
<path d="M65 584H1135" stroke="#24d89a" opacity=".34"/><path d="M110 607H690" stroke="#00e5ff" opacity=".2"/>
<g transform="translate(70 74)"><rect width="78" height="5" rx="2.5" fill="url(#g)" filter="url(#glow)"/><text x="0" y="66" font-family="Segoe UI,Arial" font-size="57" font-weight="800" fill="#f5f8ff" letter-spacing="2">MYSTIC FOREST</text><text x="2" y="100" font-family="Segoe UI,Arial" font-size="17" font-weight="700" fill="#24d89a" letter-spacing="6">BIOME</text></g>
<g transform="translate(994 552)"><path d="M40 0 80 23v46L40 92 0 69V23Z" fill="#081224" stroke="#24d89a" stroke-width="2"/><path d="M20 58V31l20 14 20-14v27" fill="none" stroke="#24d89a" stroke-width="4"/></g>
<text x="70" y="632" font-family="Segoe UI,Arial" font-size="13" fill="#718096" letter-spacing="3">ASSETGURU • GAMEGURU MAX READY</text></svg>