<svg xmlns="http://www.w3.org/2000/svg" width="1200" height="675" viewBox="0 0 1200 675">
<defs><linearGradient id="bg" x1="0" x2="1" y1="0" y2="1"><stop stop-color="#030713"/><stop offset=".55" stop-color="#08152b"/><stop offset="1" stop-color="#02040d"/></linearGradient><linearGradient id="g" x1="0" x2="1"><stop stop-color="#ffb547"/><stop offset="1" stop-color="#ff526d"/></linearGradient><radialGradient id="r"><stop stop-color="#ffb547" stop-opacity=".34"/><stop offset="1" stop-color="#ffb547" stop-opacity="0"/></radialGradient><filter id="glow"><feGaussianBlur stdDeviation="11" result="b"/><feMerge><feMergeNode in="b"/><feMergeNode in="SourceGraphic"/></feMerge></filter></defs>
<rect width="1200" height="675" fill="url(#bg)"/><circle cx="880" cy="280" r="330" fill="url(#r)"/><path d="M0 141 C 260 51, 700 241, 1200 121" stroke="#ffb547" opacity="0.040" fill="none"/><path d="M0 191 C 260 101, 700 291, 1200 171" stroke="#ffb547" opacity="0.048" fill="none"/><path d="M0 250 C 260 160, 700 350, 1200 230" stroke="#ffb547" opacity="0.056" fill="none"/><path d="M0 298 C 260 208, 700 398, 1200 278" stroke="#ffb547" opacity="0.064" fill="none"/><path d="M0 367 C 260 277, 700 467, 1200 347" stroke="#ffb547" opacity="0.072" fill="none"/><path d="M0 422 C 260 332, 700 522, 1200 402" stroke="#ffb547" opacity="0.080" fill="none"/><path d="M0 484 C 260 394, 700 584, 1200 464" stroke="#ffb547" opacity="0.088" fill="none"/><path d="M0 537 C 260 447, 700 637, 1200 517" stroke="#ffb547" opacity="0.096" fill="none"/><rect x="251" y="460" width="73" height="169" rx="8" fill="url(#g)" opacity="0.22"/><rect x="483" y="147" width="158" height="136" rx="7" fill="url(#g)" opacity="0.13"/><rect x="822" y="163" width="73" height="185" rx="3" fill="url(#g)" opacity="0.13"/><rect x="853" y="202" width="57" height="54" rx="13" fill="url(#g)" opacity="0.18"/><rect x="285" y="170" width="169" height="163" rx="11" fill="url(#g)" opacity="0.25"/><rect x="496" y="549" width="154" height="63" rx="12" fill="url(#g)" opacity="0.13"/><rect x="552" y="120" width="173" height="166" rx="11" fill="url(#g)" opacity="0.3"/><rect x="273" y="374" width="146" height="72" rx="5" fill="url(#g)" opacity="0.13"/><rect x="86" y="299" width="164" height="125" rx="11" fill="url(#g)" opacity="0.12"/><rect x="810" y="529" width="169" height="199" rx="10" fill="url(#g)" opacity="0.24"/><rect x="373" y="238" width="190" height="78" rx="16" fill="url(#g)" opacity="0.26"/><rect x="83" y="193" width="90" height="45" rx="13" fill="url(#g)" opacity="0.3"/><rect x="754" y="425" width="142" height="57" rx="7" fill="url(#g)" opacity="0.2"/>
<path d="M0 560 L170 500 290 530 410 440 550 505 710 390 860 470 1020 350 1200 430V675H0Z" fill="#050a16" opacity=".92"/>
<path d="M65 584H1135" stroke="#ffb547" opacity=".34"/><path d="M110 607H690" stroke="#ff526d" opacity=".2"/>
<g transform="translate(70 74)"><rect width="78" height="5" rx="2.5" fill="url(#g)" filter="url(#glow)"/><text x="0" y="66" font-family="Segoe UI,Arial" font-size="57" font-weight="800" fill="#f5f8ff" letter-spacing="2">WASTELAND</text><text x="2" y="100" font-family="Segoe UI,Arial" font-size="17" font-weight="700" fill="#ffb547" letter-spacing="6">VEHICLE PACK</text></g>
<g transform="translate(994 552)"><path d="M40 0 80 23v46L40 92 0 69V23Z" fill="#081224" stroke="#ffb547" stroke-width="2"/><path d="M20 58V31l20 14 20-14v27" fill="none" stroke="#ffb547" stroke-width="4"/></g>
<text x="70" y="632" font-family="Segoe UI,Arial" font-size="13" fill="#718096" letter-spacing="3">ASSETGURU • GAMEGURU MAX READY</text></svg>