<svg xmlns="http://www.w3.org/2000/svg" width="1200" height="675" viewBox="0 0 1200 675">
<defs><linearGradient id="bg" x1="0" x2="1" y1="0" y2="1"><stop stop-color="#030713"/><stop offset=".55" stop-color="#08152b"/><stop offset="1" stop-color="#02040d"/></linearGradient><linearGradient id="g" x1="0" x2="1"><stop stop-color="#00e5ff"/><stop offset="1" stop-color="#8b5cf6"/></linearGradient><radialGradient id="r"><stop stop-color="#00e5ff" stop-opacity=".34"/><stop offset="1" stop-color="#00e5ff" stop-opacity="0"/></radialGradient><filter id="glow"><feGaussianBlur stdDeviation="11" result="b"/><feMerge><feMergeNode in="b"/><feMergeNode in="SourceGraphic"/></feMerge></filter></defs>
<rect width="1200" height="675" fill="url(#bg)"/><circle cx="880" cy="280" r="330" fill="url(#r)"/><path d="M0 121 C 260 31, 700 221, 1200 101" stroke="#00e5ff" opacity="0.040" fill="none"/><path d="M0 197 C 260 107, 700 297, 1200 177" stroke="#00e5ff" opacity="0.048" fill="none"/><path d="M0 241 C 260 151, 700 341, 1200 221" stroke="#00e5ff" opacity="0.056" fill="none"/><path d="M0 292 C 260 202, 700 392, 1200 272" stroke="#00e5ff" opacity="0.064" fill="none"/><path d="M0 367 C 260 277, 700 467, 1200 347" stroke="#00e5ff" opacity="0.072" fill="none"/><path d="M0 428 C 260 338, 700 528, 1200 408" stroke="#00e5ff" opacity="0.080" fill="none"/><path d="M0 480 C 260 390, 700 580, 1200 460" stroke="#00e5ff" opacity="0.088" fill="none"/><path d="M0 547 C 260 457, 700 647, 1200 527" stroke="#00e5ff" opacity="0.096" fill="none"/><rect x="362" y="403" width="99" height="100" rx="8" fill="url(#g)" opacity="0.19"/><rect x="1050" y="244" width="175" height="153" rx="5" fill="url(#g)" opacity="0.19"/><rect x="637" y="291" width="119" height="162" rx="4" fill="url(#g)" opacity="0.2"/><rect x="892" y="497" width="111" height="111" rx="10" fill="url(#g)" opacity="0.21"/><rect x="260" y="522" width="54" height="111" rx="12" fill="url(#g)" opacity="0.32"/><rect x="456" y="539" width="56" height="123" rx="13" fill="url(#g)" opacity="0.11"/><rect x="517" y="342" width="109" height="111" rx="12" fill="url(#g)" opacity="0.08"/><rect x="1156" y="281" width="139" height="77" rx="4" fill="url(#g)" opacity="0.24"/><rect x="766" y="526" width="183" height="61" rx="5" fill="url(#g)" opacity="0.1"/><rect x="265" y="493" width="121" height="30" rx="11" fill="url(#g)" opacity="0.09"/><rect x="733" y="183" width="89" height="203" rx="17" fill="url(#g)" opacity="0.24"/><rect x="989" y="484" width="131" height="180" rx="12" fill="url(#g)" opacity="0.21"/><rect x="1015" y="115" width="42" height="153" rx="14" fill="url(#g)" opacity="0.17"/>
<path d="M0 560 L170 500 290 530 410 440 550 505 710 390 860 470 1020 350 1200 430V675H0Z" fill="#050a16" opacity=".92"/>
<path d="M65 584H1135" stroke="#00e5ff" opacity=".34"/><path d="M110 607H690" stroke="#8b5cf6" opacity=".2"/>
<g transform="translate(70 74)"><rect width="78" height="5" rx="2.5" fill="url(#g)" filter="url(#glow)"/><text x="0" y="66" font-family="Segoe UI,Arial" font-size="57" font-weight="800" fill="#f5f8ff" letter-spacing="2">STORMFORGE</text><text x="2" y="100" font-family="Segoe UI,Arial" font-size="17" font-weight="700" fill="#00e5ff" letter-spacing="6">VFX SYSTEM</text></g>
<g transform="translate(994 552)"><path d="M40 0 80 23v46L40 92 0 69V23Z" fill="#081224" stroke="#00e5ff" stroke-width="2"/><path d="M20 58V31l20 14 20-14v27" fill="none" stroke="#00e5ff" stroke-width="4"/></g>
<text x="70" y="632" font-family="Segoe UI,Arial" font-size="13" fill="#718096" letter-spacing="3">ASSETGURU • GAMEGURU MAX READY</text></svg>